<mxfile host="app.diagrams.net" modified="2024-05-30T20:48:33.875Z" agent="Mozilla/5.0 (X11; Linux x86_64) AppleWebKit/537.36 (KHTML, like Gecko) Chrome/114.0.0.0 Safari/537.36" version="24.4.10" etag="SuD3YYZ9QAbs0JK2WNE3" type="github">
  <diagram name="Page-1" id="pSnlnSuGJ0mUrwmTlhpR">
    <mxGraphModel>
      <root>
        <mxCell id="0" />
        <mxCell id="1" parent="0" />
      </root>
    </mxGraphModel>
  </diagram>
</mxfile>
